name rise30.9205peak61.366fall85.3838.mot
datacolumns 19
datarows 44
range 0.000000 0.071669
endheader
time	ground_force1_vx	ground_force1_vy	ground_force1_vz	ground_force1_px	ground_force1_py	ground_force1_pz	ground_force2_vx	ground_force2_vy	ground_force2_vz	ground_force2_px	ground_force2_py	ground_force2_pz	ground_torque1_x	ground_torque1_y	ground_torque1_z	ground_torque2_x	ground_torque2_y	ground_torque2_z	
0.000000	-30.118122	780.564210	45.863786	0.195338	0.000000	0.090913	0.000000	0.000000	0.000000	0.000000	0.000000	0.000000	0.000000	28.219848	0.000000	0.000000	0.000000	0.000000	
0.001667	-29.989959	781.716666	45.822371	0.195133	0.000000	0.091048	0.000000	0.000000	0.000000	0.000000	0.000000	0.000000	0.000000	28.046284	0.000000	0.000000	0.000000	0.000000	
0.003333	-29.863040	782.859566	45.781457	0.194907	0.000000	0.091184	0.000000	0.000000	0.000000	0.000000	0.000000	0.000000	0.000000	27.873290	0.000000	0.000000	0.000000	0.000000	
0.004998	-29.737914	783.997249	45.742586	0.194656	0.000000	0.091322	0.000000	0.000000	0.000000	0.000000	0.000000	0.000000	0.000000	27.701241	0.000000	0.000000	0.000000	0.000000	
0.006669	-29.614984	785.135511	45.707292	0.194382	0.000000	0.091460	0.000000	0.000000	0.000000	0.000000	0.000000	0.000000	0.000000	27.530314	0.000000	0.000000	0.000000	0.000000	
0.008338	-29.494525	786.280954	45.677041	0.194082	0.000000	0.091600	0.000000	0.000000	0.000000	0.000000	0.000000	0.000000	0.000000	27.360531	0.000000	0.000000	0.000000	0.000000	
0.009999	-29.376712	787.440360	45.653187	0.193758	0.000000	0.091740	0.000000	0.000000	0.000000	0.000000	0.000000	0.000000	0.000000	27.191808	0.000000	0.000000	0.000000	0.000000	
0.011669	-29.261648	788.620141	45.636937	0.193406	0.000000	0.091881	0.000000	0.000000	0.000000	0.000000	0.000000	0.000000	0.000000	27.023995	0.000000	0.000000	0.000000	0.000000	
0.013332	-29.149385	789.825892	45.629327	0.193028	0.000000	0.092022	0.000000	0.000000	0.000000	0.000000	0.000000	0.000000	0.000000	26.856921	0.000000	0.000000	0.000000	0.000000	
0.015001	-29.039953	791.062073	45.631215	0.192623	0.000000	0.092163	0.000000	0.000000	0.000000	0.000000	0.000000	0.000000	0.000000	26.690426	0.000000	0.000000	0.000000	0.000000	
0.016666	-28.933379	792.331806	45.643278	0.192190	0.000000	0.092304	0.000000	0.000000	0.000000	0.000000	0.000000	0.000000	0.000000	26.524388	0.000000	0.000000	0.000000	0.000000	
0.018334	-28.829700	793.636795	45.666028	0.191729	0.000000	0.092444	0.000000	0.000000	0.000000	0.000000	0.000000	0.000000	0.000000	26.358739	0.000000	0.000000	0.000000	0.000000	
0.020000	-28.728977	794.977355	45.699825	0.191240	0.000000	0.092584	0.000000	0.000000	0.000000	0.000000	0.000000	0.000000	0.000000	26.193475	0.000000	0.000000	0.000000	0.000000	
0.021665	-28.631302	796.352512	45.744900	0.190721	0.000000	0.092722	0.000000	0.000000	0.000000	0.000000	0.000000	0.000000	0.000000	26.028662	0.000000	0.000000	0.000000	0.000000	
0.023337	-28.536799	797.760178	45.801381	0.190174	0.000000	0.092860	0.000000	0.000000	0.000000	0.000000	0.000000	0.000000	0.000000	25.864426	0.000000	0.000000	0.000000	0.000000	
0.025001	-28.445624	799.197351	45.869313	0.189598	0.000000	0.092996	0.000000	0.000000	0.000000	0.000000	0.000000	0.000000	0.000000	25.700948	0.000000	0.000000	0.000000	0.000000	
0.026666	-28.357963	800.660343	45.948680	0.188993	0.000000	0.093131	0.000000	0.000000	0.000000	0.000000	0.000000	0.000000	0.000000	25.538452	0.000000	0.000000	0.000000	0.000000	
0.028337	-28.274025	802.145000	46.039429	0.188358	0.000000	0.093264	0.000000	0.000000	0.000000	0.000000	0.000000	0.000000	0.000000	25.377192	0.000000	0.000000	0.000000	0.000000	
0.030002	-28.194040	803.646897	46.141477	0.187695	0.000000	0.093395	0.000000	0.000000	0.000000	0.000000	0.000000	0.000000	0.000000	25.217436	0.000000	0.000000	0.000000	0.000000	
0.031667	-28.118249	805.161518	46.254729	0.187003	0.000000	0.093524	0.000000	0.000000	0.000000	0.000000	0.000000	0.000000	0.000000	25.059454	0.000000	0.000000	0.000000	0.000000	
0.033332	-28.046898	806.684394	46.379081	0.186283	0.000000	0.093651	0.000000	0.000000	0.000000	0.000000	0.000000	0.000000	0.000000	24.903509	0.000000	0.000000	0.000000	0.000000	
0.034999	-27.980237	808.211197	46.514421	0.185534	0.000000	0.093775	0.000000	0.000000	0.000000	0.000000	0.000000	0.000000	0.000000	24.749843	0.000000	0.000000	0.000000	0.000000	
0.036665	-27.918514	809.737810	46.660632	0.184757	0.000000	0.093897	0.000000	0.000000	0.000000	0.000000	0.000000	0.000000	0.000000	24.598672	0.000000	0.000000	0.000000	0.000000	
0.038338	-27.861970	811.260350	46.817586	0.183953	0.000000	0.094016	0.000000	0.000000	0.000000	0.000000	0.000000	0.000000	0.000000	24.450183	0.000000	0.000000	0.000000	0.000000	
0.040006	-27.810841	812.775174	46.985141	0.183123	0.000000	0.094131	0.000000	0.000000	0.000000	0.000000	0.000000	0.000000	0.000000	24.304529	0.000000	0.000000	0.000000	0.000000	
0.041668	-27.765355	814.278850	47.163134	0.182266	0.000000	0.094244	0.000000	0.000000	0.000000	0.000000	0.000000	0.000000	0.000000	24.161830	0.000000	0.000000	0.000000	0.000000	
0.043334	-27.725737	815.768124	47.351370	0.181384	0.000000	0.094353	0.000000	0.000000	0.000000	0.000000	0.000000	0.000000	0.000000	24.022176	0.000000	0.000000	0.000000	0.000000	
0.044999	-27.692205	817.239874	47.549624	0.180477	0.000000	0.094459	0.000000	0.000000	0.000000	0.000000	0.000000	0.000000	0.000000	23.885625	0.000000	0.000000	0.000000	0.000000	
0.046670	-27.664977	818.691056	47.757628	0.179546	0.000000	0.094561	0.000000	0.000000	0.000000	0.000000	0.000000	0.000000	0.000000	23.752214	0.000000	0.000000	0.000000	0.000000	
0.048338	-27.644271	820.118659	47.975070	0.178592	0.000000	0.094660	0.000000	0.000000	0.000000	0.000000	0.000000	0.000000	0.000000	23.621956	0.000000	0.000000	0.000000	0.000000	
0.050006	-27.630311	821.519667	48.201591	0.177616	0.000000	0.094754	0.000000	0.000000	0.000000	0.000000	0.000000	0.000000	0.000000	23.494847	0.000000	0.000000	0.000000	0.000000	
0.051670	-27.623326	822.891018	48.436779	0.176619	0.000000	0.094845	0.000000	0.000000	0.000000	0.000000	0.000000	0.000000	0.000000	23.370871	0.000000	0.000000	0.000000	0.000000	
0.053330	-27.623556	824.229588	48.680175	0.175602	0.000000	0.094932	0.000000	0.000000	0.000000	0.000000	0.000000	0.000000	0.000000	23.250001	0.000000	0.000000	0.000000	0.000000	
0.055002	-27.631253	825.532174	48.931266	0.174566	0.000000	0.095014	0.000000	0.000000	0.000000	0.000000	0.000000	0.000000	0.000000	23.132206	0.000000	0.000000	0.000000	0.000000	
0.056667	-27.646681	826.795495	49.189492	0.173513	0.000000	0.095093	0.000000	0.000000	0.000000	0.000000	0.000000	0.000000	0.000000	23.017447	0.000000	0.000000	0.000000	0.000000	
0.058349	-27.670125	828.016193	49.454247	0.172442	0.000000	0.095167	0.000000	0.000000	0.000000	0.000000	0.000000	0.000000	0.000000	22.905684	0.000000	0.000000	0.000000	0.000000	
0.059999	-27.701884	829.190850	49.724881	0.171357	0.000000	0.095236	0.000000	0.000000	0.000000	0.000000	0.000000	0.000000	0.000000	22.796877	0.000000	0.000000	0.000000	0.000000	
0.061670	-27.742275	830.316002	50.000704	0.170257	0.000000	0.095301	0.000000	0.000000	0.000000	0.000000	0.000000	0.000000	0.000000	22.690983	0.000000	0.000000	0.000000	0.000000	
0.063335	-27.791634	831.388165	50.280989	0.169145	0.000000	0.095362	0.000000	0.000000	0.000000	0.000000	0.000000	0.000000	0.000000	22.587960	0.000000	0.000000	0.000000	0.000000	
0.065003	-27.850318	832.403854	50.564979	0.168022	0.000000	0.095418	0.000000	0.000000	0.000000	0.000000	0.000000	0.000000	0.000000	22.487764	0.000000	0.000000	0.000000	0.000000	
0.066668	-27.918701	833.359607	50.851886	0.166888	0.000000	0.095469	0.000000	0.000000	0.000000	0.000000	0.000000	0.000000	0.000000	22.390350	0.000000	0.000000	0.000000	0.000000	
0.068331	-27.997173	834.252003	51.140896	0.165746	0.000000	0.095515	0.000000	0.000000	0.000000	0.000000	0.000000	0.000000	0.000000	22.295673	0.000000	0.000000	0.000000	0.000000	
0.069998	-28.086146	835.077685	51.431175	0.164596	0.000000	0.095557	0.000000	0.000000	0.000000	0.000000	0.000000	0.000000	0.000000	22.203688	0.000000	0.000000	0.000000	0.000000	
0.071669	-28.186046	835.833375	51.721867	0.163440	0.000000	0.095594	0.000000	0.000000	0.000000	0.000000	0.000000	0.000000	0.000000	22.114346	0.000000	0.000000	0.000000	0.000000	
